<svg width="979" height="239" viewBox="0 0 979 239" fill="none" xmlns="http://www.w3.org/2000/svg">
<path d="M560.855 224.956H556.71V179.759C556.71 178.427 556.273 177.149 555.496 176.208C554.718 175.266 553.664 174.737 552.565 174.737C551.465 174.737 550.411 175.266 549.633 176.208C548.856 177.149 548.419 178.427 548.419 179.759V182.018C542.367 176.093 536.357 169.815 530.512 163.287C497.042 126.096 469.759 81.4845 450.138 31.8622L440.314 7.05375C439.995 6.14784 439.464 5.37538 438.786 4.83243C438.108 4.28948 437.313 4 436.5 4C435.687 4 434.892 4.28948 434.214 4.83243C433.536 5.37538 433.005 6.14784 432.686 7.05375L422.862 31.8622C409.97 64.2903 393.804 94.6541 374.737 122.257L370.924 127.681C367.11 133.054 363.131 138.277 359.11 143.4C353.583 150.096 348.056 156.674 342.529 163.136C336.643 169.715 330.633 176.093 324.581 182.018V179.759C324.581 178.427 324.144 177.149 323.367 176.208C322.589 175.266 321.535 174.737 320.435 174.737C319.336 174.737 318.282 175.266 317.504 176.208C316.727 177.149 316.29 178.427 316.29 179.759V224.956H312.145C311.046 224.956 309.991 225.485 309.214 226.427C308.437 227.369 308 228.646 308 229.978C308 231.31 308.437 232.587 309.214 233.529C309.991 234.471 311.046 235 312.145 235H560.855C561.954 235 563.009 234.471 563.786 233.529C564.563 232.587 565 231.31 565 229.978C565 228.646 564.563 227.369 563.786 226.427C563.009 225.485 561.954 224.956 560.855 224.956ZM548.419 224.956H531.839V178.252C537.269 184.077 542.823 189.802 548.419 194.824V224.956ZM324.581 194.824C330.177 189.802 335.731 184.128 341.161 178.302V224.956H324.581V194.824ZM480.77 224.956H388.914L374.613 181.617C374.355 180.775 374.289 179.866 374.42 178.982C374.551 178.099 374.875 177.275 375.359 176.595L432.355 97.5493L433.06 96.5951C433.272 96.254 433.508 95.9348 433.764 95.6409H434.054H434.345L434.925 95.3898H435.339C435.817 95.2649 436.312 95.2649 436.79 95.3898C437.05 95.4448 437.301 95.5464 437.536 95.6912C437.756 95.7944 437.965 95.9293 438.158 96.0929C438.292 96.1478 438.409 96.2534 438.49 96.3942L438.987 96.9466L439.319 97.4488L439.982 98.3026L497.641 176.444C498.125 177.124 498.449 177.948 498.58 178.832C498.711 179.715 498.645 180.625 498.387 181.466L484.086 224.956H480.77Z" fill="url(#paint0_linear_22_4)"/>
<path d="M466.666 216.316L478.356 180.861L437.36 124.063L466.666 216.316Z" fill="url(#paint1_linear_22_4)"/>
<path d="M383.596 216.316L412.902 124.063L371.907 180.861L383.596 216.316Z" fill="url(#paint2_linear_22_4)"/>
<path d="M0 236.657V92.0026H101.71V123.646H39.2715V148.508H95.4947V180.152H39.2715V236.657H0Z" fill="white"/>
<path d="M155.426 110.687V236.657H116.155V110.687L136.177 92.0026L155.426 110.687Z" fill="white"/>
<path d="M174.038 236.657V92.0026H236.477C247.213 92.0026 256.607 93.9568 264.659 97.8651C272.711 101.773 278.974 107.4 283.447 114.746C287.92 122.092 290.157 130.897 290.157 141.163C290.157 151.522 287.85 160.257 283.235 167.367C278.667 174.477 272.24 179.845 263.952 183.471C255.712 187.097 246.082 188.91 235.064 188.91H197.77V158.397H227.153C231.768 158.397 235.7 157.832 238.949 156.702C242.245 155.524 244.764 153.664 246.506 151.122C248.296 148.579 249.19 145.259 249.19 141.163C249.19 137.019 248.296 133.652 246.506 131.062C244.764 128.425 242.245 126.495 238.949 125.27C235.7 123.999 231.768 123.363 227.153 123.363H213.309V236.657H174.038ZM258.796 170.263L294.96 236.657H252.298L216.982 170.263H258.796Z" fill="white"/>
<path d="M662.247 137.207C661.87 132.498 660.105 128.826 656.95 126.189C653.842 123.552 649.11 122.233 642.753 122.233C638.703 122.233 635.383 122.728 632.794 123.716C630.251 124.658 628.367 125.953 627.143 127.601C625.919 129.249 625.283 131.133 625.236 133.252C625.142 134.994 625.448 136.571 626.154 137.984C626.908 139.35 628.085 140.598 629.686 141.728C631.287 142.811 633.335 143.8 635.831 144.694C638.326 145.589 641.293 146.389 644.73 147.096L656.597 149.638C664.602 151.334 671.453 153.57 677.151 156.349C682.848 159.127 687.51 162.399 691.136 166.166C694.762 169.886 697.422 174.077 699.117 178.739C700.859 183.401 701.754 188.486 701.801 193.995C701.754 203.507 699.376 211.559 694.667 218.152C689.959 224.744 683.225 229.759 674.467 233.196C665.755 236.634 655.278 238.352 643.035 238.352C630.463 238.352 619.491 236.492 610.121 232.773C600.797 229.053 593.546 223.331 588.366 215.609C583.233 207.839 580.644 197.904 580.596 185.802H617.89C618.126 190.228 619.232 193.948 621.21 196.962C623.188 199.976 625.966 202.259 629.544 203.813C633.17 205.367 637.479 206.144 642.47 206.144C646.661 206.144 650.169 205.626 652.994 204.59C655.82 203.554 657.962 202.118 659.422 200.282C660.882 198.445 661.635 196.35 661.682 193.995C661.635 191.782 660.905 189.852 659.493 188.204C658.127 186.508 655.867 185.002 652.712 183.683C649.557 182.318 645.295 181.046 639.927 179.869L625.518 176.761C612.711 173.983 602.61 169.345 595.217 162.847C587.872 156.301 584.222 147.378 584.269 136.077C584.222 126.895 586.671 118.866 591.615 111.992C596.606 105.07 603.505 99.678 612.31 95.8167C621.163 91.9555 631.31 90.0249 642.753 90.0249C654.431 90.0249 664.531 91.9791 673.054 95.8874C681.577 99.7957 688.146 105.305 692.76 112.415C697.422 119.479 699.776 127.742 699.823 137.207H662.247Z" fill="white"/>
<path d="M712.784 123.646V92.0026H838.51V123.646H795V236.657H756.294V123.646H712.784Z" fill="white"/>
<path d="M938.896 92.0026H978.167V184.672C978.167 195.691 975.53 205.226 970.256 213.278C965.03 221.283 957.731 227.475 948.36 231.854C938.99 236.186 928.113 238.352 915.728 238.352C903.25 238.352 892.326 236.186 882.955 231.854C873.585 227.475 866.286 221.283 861.059 213.278C855.879 205.226 853.29 195.691 853.29 184.672V92.0026H892.561V181.282C892.561 185.755 893.55 189.758 895.528 193.289C897.505 196.774 900.236 199.505 903.721 201.482C907.253 203.46 911.255 204.449 915.728 204.449C920.249 204.449 924.251 203.46 927.736 201.482C931.22 199.505 933.951 196.774 935.929 193.289C937.907 189.758 938.896 185.755 938.896 181.282V92.0026Z" fill="white"/>
<path d="M136.661 4.02979C144.99 16.3241 133.489 29.0566 125.716 14.1687C130.409 39.0143 114.502 42.7703 112.864 27.0212C100.217 38.207 102.658 52.3255 109.35 63.2574L117.232 58.7278C115.168 55.5783 114.138 51.4201 114.6 47.3424C119.016 54.1219 132.972 49.0769 131.299 37.0366C133.138 42.5514 137.799 42.0177 142.609 33.5119C136.066 51.1728 146.362 62.6285 153.254 57.3417C153.506 59.3998 152.746 61.7531 151.432 63.8862L159.508 66.0406C168.986 57.873 173.213 42.662 158.853 35.8601C165.572 46.2586 156.6 53.9247 148.412 42.9901C141.785 30.5875 162.574 23.4932 136.662 4.02979H136.661ZM118.151 8.27428C107.125 13.8336 115.634 18.6783 115.739 24.1519C123.325 17.4574 115.099 14.9519 118.151 8.27428ZM130.955 54.5421L101.15 71.6769C101.616 74.8389 102.694 77.5946 104.385 80.016L120.204 72.4398L106.674 82.7347C107.257 83.3159 107.883 83.8729 108.555 84.4111L121.401 77.0287C121.397 76.9018 121.391 76.7751 121.391 76.647C121.391 70.2474 126.634 65.0308 133.05 65.0308C134.803 65.0289 136.534 65.4237 138.112 66.1857C137.713 63.8793 136.86 61.5255 135.581 59.4319L119.258 66.3308L133.438 56.6219C132.691 55.8396 131.862 55.1364 130.955 54.5425L130.955 54.5421ZM141.078 64.45C141.355 65.679 141.525 66.9113 141.588 68.1144L141.626 68.7915C143.54 70.8619 144.71 73.6212 144.71 76.6468C144.71 77.95 144.489 79.2437 144.055 80.4725L159.76 84.6637C160.559 83.5758 161.237 82.4684 161.797 81.3324L150.938 77.0879L162.995 78.2646C163.144 77.7577 163.272 77.2462 163.376 76.7278L146.688 70.8441L163.736 73.504C163.763 72.5115 163.719 71.4974 163.597 70.4572L141.078 64.4505V64.45ZM133.05 68.2433C128.363 68.2433 124.604 71.9916 124.604 76.6468C124.604 81.3026 128.363 85.0506 133.05 85.0506C137.738 85.0506 141.497 81.3026 141.497 76.647C141.497 71.9918 137.738 68.2437 133.051 68.2437L133.05 68.2433ZM132.202 70.2688C139.729 70.2691 142.249 82.5788 132.202 82.5788C136.779 78.6047 137.327 74.5169 132.202 70.2693V70.2688ZM132.234 71.9615C128.517 75.042 128.915 78.0098 132.234 80.892C124.948 80.892 126.776 71.9615 132.234 71.9615Z" fill="url(#paint3_linear_22_4)"/>
<defs>
<linearGradient id="paint0_linear_22_4" x1="436.5" y1="4" x2="436.5" y2="235" gradientUnits="userSpaceOnUse">
<stop offset="0.334" stop-color="#41FBF0"/>
<stop offset="1" stop-color="#08A6FF"/>
</linearGradient>
<linearGradient id="paint1_linear_22_4" x1="457.858" y1="124.063" x2="457.858" y2="216.316" gradientUnits="userSpaceOnUse">
<stop offset="0.334" stop-color="#41FBF0"/>
<stop offset="1" stop-color="#08A6FF"/>
</linearGradient>
<linearGradient id="paint2_linear_22_4" x1="392.405" y1="124.063" x2="392.405" y2="216.316" gradientUnits="userSpaceOnUse">
<stop offset="0.334" stop-color="#41FBF0"/>
<stop offset="1" stop-color="#08A6FF"/>
</linearGradient>
<linearGradient id="paint3_linear_22_4" x1="134.66" y1="4.02979" x2="134.66" y2="85.0506" gradientUnits="userSpaceOnUse">
<stop offset="0.3" stop-color="#F8B200"/>
<stop offset="0.92" stop-color="#FF0000"/>
</linearGradient>
</defs>
</svg>
