<svg width="1080" height="1080" viewBox="0 0 1080 1080" fill="none" xmlns="http://www.w3.org/2000/svg">
<rect width="1080" height="1080" rx="540" fill="url(#paint0_linear_5_513)" fill-opacity="0.1"/>
<path d="M1015.44 687.474C1033 619 1028.5 559.5 1026.41 486.831L989.5 482.5L948.5 439.5L793.068 200.458H776.628L734.203 252.96L624.427 70H609.578L544.349 226.444L518.363 219.55L465.862 293.795L401.693 252.96L241 439.5L224.5 482.5L205.5 501.5H166.5L151.5 482.5L149.001 512H88.0003L88.9997 626L66.9997 625.5L50.9997 624.5C50.9997 624.5 45.9999 622.5 66.4347 689.356C88.0246 755.95 123.399 817.251 170.255 869.266C217.11 921.28 274.396 962.843 338.382 991.246C402.368 1019.65 471.619 1034.26 541.625 1034.12C611.632 1033.98 680.824 1019.1 744.697 990.44C808.57 961.783 865.69 919.994 912.339 867.794C958.988 815.594 994.119 754.153 1015.44 687.474Z" fill="url(#paint1_linear_5_513)"/>
<g clip-path="url(#clip0_5_513)">
<path d="M611.26 616.644H607.108V579.277C607.108 578.176 606.67 577.12 605.892 576.341C605.113 575.562 604.057 575.125 602.956 575.125C601.855 575.125 600.799 575.562 600.02 576.341C599.242 577.12 598.804 578.176 598.804 579.277V581.145C592.742 576.246 586.722 571.056 580.868 565.659C547.344 534.912 520.017 498.03 500.364 457.005L490.524 436.495C490.205 435.746 489.673 435.107 488.994 434.658C488.315 434.21 487.518 433.97 486.704 433.97C485.89 433.97 485.094 434.21 484.415 434.658C483.736 435.107 483.204 435.746 482.885 436.495L473.045 457.005C460.131 483.815 443.94 508.918 424.842 531.738L421.022 536.222C417.202 540.665 413.217 544.983 409.189 549.218C403.654 554.753 398.118 560.192 392.582 565.534C386.686 570.973 380.666 576.246 374.604 581.145V579.277C374.604 578.176 374.167 577.12 373.388 576.341C372.61 575.562 371.554 575.125 370.453 575.125C369.351 575.125 368.295 575.562 367.517 576.341C366.738 577.12 366.301 578.176 366.301 579.277V616.644H362.149C361.048 616.644 359.992 617.081 359.213 617.86C358.434 618.638 357.997 619.694 357.997 620.795C357.997 621.897 358.434 622.953 359.213 623.731C359.992 624.51 361.048 624.947 362.149 624.947H611.26C612.361 624.947 613.417 624.51 614.196 623.731C614.974 622.953 615.412 621.897 615.412 620.795C615.412 619.694 614.974 618.638 614.196 617.86C613.417 617.081 612.361 616.644 611.26 616.644ZM598.804 616.644H582.197V578.031C587.636 582.848 593.199 587.581 598.804 591.732V616.644ZM374.604 591.732C380.209 587.581 385.773 582.889 391.212 578.073V616.644H374.604V591.732ZM531.046 616.644H439.041L424.717 580.813C424.46 580.117 424.393 579.365 424.524 578.635C424.656 577.905 424.98 577.223 425.465 576.661L482.552 511.311L483.258 510.522C483.471 510.24 483.707 509.976 483.964 509.733H484.255H484.545L485.127 509.526H485.542C486.021 509.423 486.516 509.423 486.995 509.526C487.255 509.571 487.507 509.655 487.742 509.775C487.962 509.86 488.172 509.972 488.365 510.107C488.5 510.153 488.616 510.24 488.697 510.356L489.195 510.813L489.528 511.228L490.192 511.934L547.944 576.537C548.428 577.099 548.753 577.78 548.884 578.511C549.016 579.241 548.949 579.993 548.691 580.689L534.368 616.644H531.046Z" fill="black"/>
<path d="M516.919 609.5L528.627 580.188L487.565 533.231L516.919 609.5Z" fill="black"/>
<path d="M433.715 609.5L463.069 533.231L422.007 580.188L433.715 609.5Z" fill="black"/>
</g>
<path d="M50.3232 626.97V482.316H152.034V513.959H89.5947V538.821H145.818V570.465H89.5947V626.97H50.3232Z" fill="black"/>
<path d="M205.749 501V626.97H166.478V501L186.5 482.316L205.749 501Z" fill="black"/>
<path d="M224.361 626.97V482.316H286.8C297.536 482.316 306.93 484.27 314.982 488.178C323.034 492.086 329.297 497.713 333.77 505.059C338.243 512.405 340.48 521.21 340.48 531.476C340.48 541.835 338.173 550.57 333.558 557.68C328.991 564.79 322.563 570.158 314.276 573.784C306.035 577.41 296.406 579.223 285.387 579.223H248.093V548.71H277.476C282.091 548.71 286.023 548.145 289.272 547.015C292.568 545.837 295.087 543.977 296.829 541.435C298.619 538.892 299.514 535.572 299.514 531.476C299.514 527.332 298.619 523.965 296.829 521.375C295.087 518.738 292.568 516.808 289.272 515.583C286.023 514.312 282.091 513.676 277.476 513.676H263.632V626.97H224.361ZM309.12 560.576L345.283 626.97H302.621L267.305 560.576H309.12Z" fill="black"/>
<path d="M712.57 527.52C712.194 522.811 710.428 519.138 707.273 516.502C704.165 513.865 699.433 512.546 693.076 512.546C689.026 512.546 685.707 513.041 683.117 514.029C680.574 514.971 678.691 516.266 677.466 517.914C676.242 519.562 675.606 521.446 675.559 523.565C675.465 525.307 675.771 526.884 676.477 528.297C677.231 529.663 678.408 530.911 680.009 532.041C681.61 533.124 683.658 534.113 686.154 535.007C688.65 535.902 691.616 536.702 695.054 537.409L706.92 539.951C714.925 541.647 721.776 543.883 727.474 546.661C733.171 549.44 737.833 552.712 741.459 556.479C745.085 560.199 747.745 564.39 749.44 569.052C751.183 573.714 752.077 578.799 752.124 584.308C752.077 593.82 749.699 601.872 744.991 608.465C740.282 615.057 733.548 620.072 724.79 623.509C716.078 626.947 705.601 628.665 693.359 628.665C680.786 628.665 669.814 626.805 660.444 623.085C651.12 619.366 643.869 613.644 638.689 605.922C633.557 598.152 630.967 588.217 630.92 576.115H668.213C668.449 580.541 669.555 584.261 671.533 587.275C673.511 590.289 676.289 592.572 679.868 594.126C683.494 595.68 687.802 596.457 692.793 596.457C696.984 596.457 700.492 595.939 703.318 594.903C706.143 593.867 708.285 592.431 709.745 590.595C711.205 588.758 711.958 586.663 712.005 584.308C711.958 582.095 711.228 580.165 709.816 578.517C708.45 576.821 706.19 575.315 703.035 573.996C699.88 572.631 695.619 571.359 690.251 570.182L675.842 567.074C663.034 564.296 652.933 559.658 645.541 553.16C638.195 546.614 634.545 537.691 634.593 526.39C634.545 517.208 636.994 509.179 641.938 502.305C646.93 495.383 653.828 489.991 662.633 486.13C671.486 482.269 681.634 480.338 693.076 480.338C704.754 480.338 714.854 482.292 723.377 486.2C731.9 490.109 738.469 495.618 743.084 502.728C747.745 509.792 750.1 518.055 750.147 527.52H712.57Z" fill="black"/>
<path d="M763.108 513.959V482.316H888.833V513.959H845.324V626.97H806.617V513.959H763.108Z" fill="black"/>
<path d="M989.219 482.316H1028.49V574.985C1028.49 586.004 1025.85 595.539 1020.58 603.591C1015.35 611.596 1008.05 617.788 998.684 622.167C989.313 626.499 978.436 628.665 966.052 628.665C953.573 628.665 942.649 626.499 933.278 622.167C923.908 617.788 916.609 611.596 911.382 603.591C906.203 595.539 903.613 586.004 903.613 574.985V482.316H942.884V571.595C942.884 576.068 943.873 580.071 945.851 583.602C947.829 587.087 950.56 589.818 954.044 591.795C957.576 593.773 961.578 594.762 966.052 594.762C970.572 594.762 974.575 593.773 978.059 591.795C981.544 589.818 984.275 587.087 986.252 583.602C988.23 580.071 989.219 576.068 989.219 571.595V482.316Z" fill="black"/>
<path d="M186.984 394.343C195.313 406.637 183.813 419.37 176.039 404.482C180.733 429.327 164.826 433.083 163.187 417.334C150.54 428.52 152.981 442.638 159.673 453.57L167.555 449.041C165.491 445.891 164.461 441.733 164.923 437.655C169.34 444.435 183.295 439.39 181.622 427.35C183.461 432.864 188.122 432.331 192.933 423.825C186.389 441.486 196.685 452.941 203.577 447.655C203.83 449.713 203.07 452.066 201.756 454.199L209.831 456.354C219.309 448.186 223.537 432.975 209.176 426.173C215.895 436.572 206.923 444.238 198.736 433.303C192.108 420.901 212.898 413.806 186.985 394.343H186.984ZM168.474 398.587C157.448 404.147 165.957 408.991 166.062 414.465C173.648 407.77 165.422 405.265 168.474 398.587ZM181.279 444.855L151.474 461.99C151.94 465.152 153.018 467.908 154.708 470.329L170.527 462.753L156.997 473.048C157.58 473.629 158.206 474.186 158.878 474.724L171.725 467.342C171.721 467.215 171.714 467.088 171.714 466.96C171.714 460.56 176.958 455.344 183.374 455.344C185.126 455.342 186.857 455.737 188.435 456.499C188.036 454.192 187.184 451.838 185.905 449.745L169.581 456.644L183.761 446.935C183.015 446.153 182.185 445.449 181.278 444.855L181.279 444.855ZM191.401 454.763C191.678 455.992 191.848 457.224 191.912 458.427L191.949 459.104C193.863 461.175 195.033 463.934 195.033 466.96C195.033 468.263 194.812 469.557 194.378 470.785L210.084 474.977C210.882 473.889 211.56 472.781 212.12 471.645L201.261 467.401L213.318 468.578C213.467 468.071 213.595 467.559 213.7 467.041L197.011 461.157L214.06 463.817C214.086 462.825 214.042 461.81 213.92 460.77L191.401 454.763V454.763ZM183.374 458.556C178.686 458.556 174.927 462.305 174.927 466.96C174.927 471.616 178.686 475.364 183.374 475.364C188.061 475.364 191.82 471.616 191.82 466.96C191.82 462.305 188.061 458.557 183.374 458.557L183.374 458.556ZM182.525 460.582C190.052 460.582 192.572 472.892 182.525 472.892C187.102 468.918 187.65 464.83 182.525 460.582V460.582ZM182.557 462.274C178.84 465.355 179.238 468.323 182.557 471.205C175.271 471.205 177.099 462.274 182.557 462.274Z" fill="url(#paint2_linear_5_513)"/>
<path d="M457.318 653H502.863C508.902 653 514.695 655.975 518.965 661.271C523.236 666.567 525.635 673.75 525.635 681.239C525.635 688.729 523.236 695.912 518.965 701.208C514.695 706.504 508.902 709.479 502.863 709.479H411.773C405.733 709.479 399.941 712.454 395.67 717.75C391.399 723.046 389 730.229 389 737.718C389 745.208 391.399 752.391 395.67 757.687C399.941 762.983 405.733 765.958 411.773 765.958H593.953C599.992 765.958 605.785 768.933 610.055 774.229C614.326 779.525 616.725 786.708 616.725 794.197C616.725 801.687 614.326 808.87 610.055 814.166C605.785 819.462 599.992 822.437 593.953 822.437H548.408C542.368 822.437 536.576 825.412 532.305 830.708C528.034 836.004 525.635 843.187 525.635 850.676C525.635 858.166 528.034 865.349 532.305 870.645C536.576 875.941 542.368 878.916 548.408 878.916H733.5" stroke="black" stroke-width="15" stroke-linecap="round" stroke-linejoin="round"/>
<path d="M247 447.572L400.999 260.763C401.18 260.543 401.502 260.505 401.729 260.678L462.927 307.231C463.168 307.414 463.514 307.359 463.685 307.109L516.738 229.894C516.856 229.722 517.065 229.635 517.271 229.673L550.98 235.896C551.227 235.942 551.471 235.808 551.567 235.576L616.099 78.4771C616.264 78.0736 616.819 78.0316 617.044 78.4056L728.5 264" stroke="black" stroke-width="24" stroke-linecap="round"/>
<path d="M404.5 278L438.081 347.342L422.542 448.341C422.455 448.905 423.197 449.189 423.51 448.713L529.8 286.672C530.035 286.314 530.575 286.368 530.735 286.765L567.545 378.01C567.719 378.443 568.327 378.455 568.52 378.03L617.812 268.958C617.843 268.89 617.859 268.815 617.859 268.74V110" stroke="black" stroke-width="16" stroke-linecap="round"/>
<path d="M658.693 350.524L786.561 205.747C786.796 205.482 787.219 205.516 787.408 205.816L937.111 443.86" stroke="black" stroke-width="24" stroke-linecap="round"/>
<path d="M627.404 425.298L750.262 354.337C750.376 354.272 750.461 354.167 750.501 354.043L792.334 225.898" stroke="black" stroke-width="16" stroke-linecap="round"/>
<path d="M714 149.433V149.433C723.647 139.113 740.649 141.702 746.789 154.424L754.423 170.243C754.888 171.207 756.248 171.241 756.761 170.302L765.806 153.747C772.736 141.065 790.042 138.876 799.912 149.433V149.433" stroke="black" stroke-width="14.8489" stroke-linecap="round"/>
<path d="M196 239.433V239.433C205.647 229.113 222.649 231.702 228.789 244.424L236.423 260.243C236.888 261.207 238.248 261.241 238.761 260.302L247.806 243.747C254.736 231.065 272.042 228.876 281.912 239.433V239.433" stroke="black" stroke-width="14.8489" stroke-linecap="round"/>
<path d="M907.682 853.884L897.336 854.683L870.826 832.598L869.872 822.124L885.568 803.283L895.141 802.364L895.828 809.912L889.086 810.574L878.022 823.855L878.4 828.007L900.526 846.353L904.635 846.027L912.869 836.143L912.499 825.806L908.278 822.289L901.073 830.938L895.411 826.22L907.075 812.218L927.923 829.587L923.463 834.94L919.551 831.681L919.861 839.264L907.682 853.884Z" fill="black"/>
<path d="M867.415 894.2L833.1 858.693L840.856 851.196L878.903 862.413L854.924 837.601L860.995 831.734L895.31 867.242L888.709 873.62L850.663 862.404L849.458 863.568L873.437 888.38L867.415 894.2Z" fill="black"/>
<path d="M843.791 914.279L838.924 908.393L842.797 905.191L821.066 878.908L817.194 882.11L812.326 876.223L826.526 864.483L831.393 870.369L827.521 873.571L849.252 899.854L853.124 896.652L857.991 902.538L843.791 914.279Z" fill="black"/>
<path d="M804.953 942.483L776.527 902.106L785.347 895.897L821.208 912.848L801.344 884.634L808.247 879.774L836.673 920.15L829.168 925.434L793.307 908.483L791.937 909.447L811.801 937.661L804.953 942.483Z" fill="black"/>
<path d="M762.281 966.602L752.219 915.655L763.155 909.54L801.287 944.793L793.51 949.142L784.44 940.472L767.423 949.987L770.059 962.253L762.281 966.602ZM765.756 942.475L778.856 935.151L762.25 919.181L760.847 919.965L765.756 942.475Z" fill="black"/>
<path d="M747.759 972.542L730.06 934.739L717.62 940.563L714.382 933.645L746.845 918.446L750.084 925.364L737.644 931.188L755.343 968.99L747.759 972.542Z" fill="black"/>
<path d="M691.292 996.904L672.624 951.19L682.61 947.112L713.767 971.66L700.722 939.715L708.538 936.524L727.206 982.238L718.708 985.708L687.551 961.16L686 961.794L699.045 993.738L691.292 996.904Z" fill="black"/>
<path d="M648.989 1010.95L639.715 1005.99L627.557 965.846L635.573 963.418L646.896 1000.8L650.572 1002.77L666.218 998.03L668.185 994.354L656.926 956.95L664.941 954.523L677.099 994.664L672.137 1003.94L648.989 1010.95Z" fill="black"/>
<path d="M597.472 1019.35L589.091 1013L584.394 978.812L590.749 970.432L614.711 967.139L623.091 973.494L627.789 1007.68L621.433 1016.06L597.472 1019.35ZM600.384 1011.51L616.58 1009.29L619.099 1005.96L615.12 977.498L611.865 974.97L595.602 977.204L593.083 980.526L597.063 1008.99L600.384 1011.51Z" fill="black"/>
<path d="M526.056 1021.2L525.543 971.826L536.128 971.716L550.704 1007.41L564.468 971.421L575.053 971.311L575.566 1020.69L567.191 1020.77L566.833 986.272L553.189 1020.92L548.432 1020.97L534.072 986.612L534.43 1021.11L526.056 1021.2Z" fill="black"/>
<path d="M445.288 1014.4L467.664 967.537L480.086 969.169L489.597 1020.22L480.762 1019.06L478.67 1006.69L459.339 1004.15L454.123 1015.56L445.288 1014.4ZM462.492 997.132L477.372 999.087L473.601 976.359L472.006 976.149L462.492 997.132Z" fill="black"/>
<path d="M381.998 992.4L377.315 982.983L388.297 950.272L397.714 945.589L420.643 953.287L425.327 962.704L414.345 995.415L404.928 1000.1L381.998 992.4ZM388.091 986.672L403.589 991.875L407.322 990.018L416.407 962.748L414.614 959.037L399.052 953.812L395.319 955.669L386.235 982.939L388.091 986.672Z" fill="black"/>
<path d="M347.104 978.054L363.507 939.671L350.876 934.274L353.878 927.25L386.839 941.336L383.838 948.359L371.208 942.962L354.805 981.345L347.104 978.054Z" fill="black"/>
<path d="M282.297 944.99L306.894 902.174L336.174 918.995L332.37 925.618L310.351 912.969L304.344 923.426L324.445 934.974L320.64 941.597L300.539 930.049L293.363 942.539L315.382 955.188L311.577 961.811L282.297 944.99Z" fill="black"/>
<path d="M241.565 916.879L270.41 876.8L293.521 893.434L295.884 907.929L279.172 931.15L264.677 933.512L241.565 916.879ZM252.668 915.789L265.773 925.221L274.003 923.88L287.349 905.336L286.008 897.107L272.902 887.674L252.668 915.789Z" fill="black"/>
<path d="M220.445 899.094L225.362 893.25L229.207 896.485L251.163 870.389L247.318 867.154L252.235 861.309L266.334 873.171L261.416 879.016L257.571 875.781L235.616 901.877L239.461 905.112L234.544 910.956L220.445 899.094Z" fill="black"/>
<path d="M185.952 866.405L220.676 831.298L241.112 851.51L241.169 862.027L229.674 873.65L220.104 873.703L212.819 892.978L206.055 886.288L213.297 867.913L204.675 859.385L191.907 872.295L185.952 866.405ZM209.857 854.145L221.576 865.736L225.745 865.713L233.189 858.186L233.166 854.017L221.448 842.427L209.857 854.145Z" fill="black"/>
<defs>
<linearGradient id="paint0_linear_5_513" x1="540" y1="0" x2="540" y2="1080" gradientUnits="userSpaceOnUse">
<stop stop-color="#41FBF0"/>
<stop offset="1" stop-color="#08A6FF"/>
</linearGradient>
<linearGradient id="paint1_linear_5_513" x1="539.485" y1="70" x2="539.485" y2="1034.12" gradientUnits="userSpaceOnUse">
<stop offset="0.334" stop-color="#41FBF0"/>
<stop offset="1" stop-color="#08A6FF"/>
</linearGradient>
<linearGradient id="paint2_linear_5_513" x1="184.983" y1="394.343" x2="184.983" y2="475.364" gradientUnits="userSpaceOnUse">
<stop offset="0.3" stop-color="#F8B200"/>
<stop offset="0.92" stop-color="#FF0000"/>
</linearGradient>
<clipPath id="clip0_5_513">
<rect width="265.718" height="265.718" fill="white" transform="translate(342.459 396.677)"/>
</clipPath>
</defs>
</svg>
