<svg width="979" height="239" viewBox="0 0 979 239" fill="none" xmlns="http://www.w3.org/2000/svg">
<path d="M561.26 226.643H557.108V189.276C557.108 188.175 556.67 187.119 555.892 186.341C555.113 185.562 554.057 185.125 552.956 185.125C551.855 185.125 550.799 185.562 550.02 186.341C549.242 187.119 548.804 188.175 548.804 189.276V191.145C542.742 186.246 536.722 181.056 530.868 175.658C497.344 144.911 470.017 108.029 450.364 67.0045L440.524 46.4944C440.205 45.7454 439.673 45.1068 438.994 44.6579C438.315 44.209 437.518 43.9697 436.704 43.9697C435.89 43.9697 435.094 44.209 434.415 44.6579C433.736 45.1068 433.204 45.7454 432.885 46.4944L423.045 67.0045C410.131 93.8141 393.94 118.917 374.842 141.738L371.022 146.222C367.202 150.664 363.217 154.982 359.189 159.217C353.654 164.753 348.118 170.192 342.582 175.534C336.686 180.973 330.666 186.246 324.604 191.145V189.276C324.604 188.175 324.167 187.119 323.388 186.341C322.61 185.562 321.554 185.125 320.453 185.125C319.351 185.125 318.295 185.562 317.517 186.341C316.738 187.119 316.301 188.175 316.301 189.276V226.643H312.149C311.048 226.643 309.992 227.08 309.213 227.859C308.434 228.638 307.997 229.694 307.997 230.795C307.997 231.896 308.434 232.952 309.213 233.731C309.992 234.509 311.048 234.947 312.149 234.947H561.26C562.361 234.947 563.417 234.509 564.196 233.731C564.974 232.952 565.412 231.896 565.412 230.795C565.412 229.694 564.974 228.638 564.196 227.859C563.417 227.08 562.361 226.643 561.26 226.643ZM548.804 226.643H532.197V188.031C537.636 192.847 543.199 197.58 548.804 201.732V226.643ZM324.604 201.732C330.209 197.58 335.773 192.889 341.212 188.072V226.643H324.604V201.732ZM481.046 226.643H389.041L374.717 190.813C374.46 190.117 374.393 189.365 374.524 188.635C374.656 187.905 374.98 187.223 375.465 186.661L432.552 121.311L433.258 120.522C433.471 120.24 433.707 119.976 433.964 119.733H434.255H434.545L435.127 119.525H435.542C436.021 119.422 436.516 119.422 436.995 119.525C437.255 119.571 437.507 119.655 437.742 119.774C437.962 119.86 438.172 119.971 438.365 120.107C438.5 120.152 438.616 120.239 438.697 120.356L439.195 120.812L439.528 121.228L440.192 121.933L497.944 186.536C498.428 187.098 498.753 187.78 498.884 188.51C499.016 189.24 498.949 189.992 498.691 190.688L484.368 226.643H481.046Z" fill="black"/>
<path d="M466.919 219.5L478.627 190.188L437.565 143.23L466.919 219.5Z" fill="black"/>
<path d="M383.715 219.5L413.069 143.23L372.007 190.188L383.715 219.5Z" fill="black"/>
<path d="M0.323242 236.97V92.3156H102.034V123.959H39.5947V148.821H95.8179V180.465H39.5947V236.97H0.323242Z" fill="black"/>
<path d="M155.749 111V236.97H116.478V111L136.5 92.3156L155.749 111Z" fill="black"/>
<path d="M174.361 236.97V92.3156H236.8C247.536 92.3156 256.93 94.2697 264.982 98.1781C273.034 102.086 279.297 107.713 283.77 115.059C288.243 122.405 290.48 131.21 290.48 141.476C290.48 151.835 288.173 160.57 283.558 167.68C278.991 174.79 272.563 180.158 264.276 183.784C256.035 187.41 246.406 189.223 235.387 189.223H198.093V158.71H227.476C232.091 158.71 236.023 158.145 239.272 157.015C242.568 155.837 245.087 153.977 246.829 151.435C248.619 148.892 249.514 145.572 249.514 141.476C249.514 137.332 248.619 133.965 246.829 131.375C245.087 128.738 242.568 126.808 239.272 125.583C236.023 124.312 232.091 123.676 227.476 123.676H213.632V236.97H174.361ZM259.12 170.576L295.283 236.97H252.621L217.305 170.576H259.12Z" fill="black"/>
<path d="M662.57 137.52C662.194 132.811 660.428 129.138 657.273 126.502C654.165 123.865 649.433 122.546 643.076 122.546C639.026 122.546 635.707 123.041 633.117 124.029C630.574 124.971 628.691 126.266 627.466 127.914C626.242 129.562 625.606 131.446 625.559 133.565C625.465 135.307 625.771 136.884 626.477 138.297C627.231 139.663 628.408 140.911 630.009 142.041C631.61 143.124 633.658 144.113 636.154 145.007C638.65 145.902 641.616 146.702 645.054 147.409L656.92 149.951C664.925 151.647 671.776 153.883 677.474 156.661C683.171 159.44 687.833 162.712 691.459 166.479C695.085 170.199 697.745 174.39 699.44 179.052C701.183 183.714 702.077 188.799 702.124 194.308C702.077 203.82 699.699 211.872 694.991 218.465C690.282 225.057 683.548 230.072 674.79 233.509C666.078 236.947 655.601 238.665 643.359 238.665C630.786 238.665 619.814 236.805 610.444 233.085C601.12 229.366 593.869 223.644 588.689 215.922C583.557 208.152 580.967 198.217 580.92 186.115H618.213C618.449 190.541 619.555 194.261 621.533 197.275C623.511 200.289 626.289 202.572 629.868 204.126C633.494 205.68 637.802 206.457 642.793 206.457C646.984 206.457 650.492 205.939 653.318 204.903C656.143 203.867 658.285 202.431 659.745 200.595C661.205 198.758 661.958 196.663 662.005 194.308C661.958 192.095 661.228 190.165 659.816 188.517C658.45 186.821 656.19 185.315 653.035 183.996C649.88 182.631 645.619 181.359 640.251 180.182L625.842 177.074C613.034 174.296 602.933 169.658 595.541 163.16C588.195 156.614 584.545 147.691 584.593 136.39C584.545 127.208 586.994 119.179 591.938 112.305C596.93 105.383 603.828 99.991 612.633 96.1297C621.486 92.2685 631.634 90.3379 643.076 90.3379C654.754 90.3379 664.854 92.292 673.377 96.2004C681.9 100.109 688.469 105.618 693.084 112.728C697.745 119.792 700.1 128.055 700.147 137.52H662.57Z" fill="black"/>
<path d="M713.108 123.959V92.3156H838.833V123.959H795.324V236.97H756.617V123.959H713.108Z" fill="black"/>
<path d="M939.219 92.3156H978.49V184.985C978.49 196.004 975.854 205.539 970.58 213.591C965.353 221.596 958.054 227.788 948.684 232.167C939.313 236.499 928.436 238.665 916.052 238.665C903.573 238.665 892.649 236.499 883.278 232.167C873.908 227.788 866.609 221.596 861.382 213.591C856.203 205.539 853.613 196.004 853.613 184.985V92.3156H892.884V181.595C892.884 186.068 893.873 190.071 895.851 193.602C897.829 197.087 900.56 199.818 904.044 201.795C907.576 203.773 911.578 204.762 916.052 204.762C920.572 204.762 924.575 203.773 928.059 201.795C931.544 199.818 934.275 197.087 936.252 193.602C938.23 190.071 939.219 186.068 939.219 181.595V92.3156Z" fill="black"/>
<path d="M136.984 4.34277C145.313 16.6371 133.813 29.3696 126.039 14.4817C130.733 39.3273 114.826 43.0833 113.187 27.3342C100.54 38.52 102.981 52.6385 109.673 63.5704L117.555 59.0408C115.491 55.8912 114.461 51.7331 114.923 47.6553C119.34 54.4349 133.295 49.3899 131.622 37.3496C133.461 42.8644 138.122 42.3307 142.933 33.8249C136.389 51.4858 146.685 62.9414 153.577 57.6547C153.83 59.7128 153.07 62.0661 151.756 64.1992L159.831 66.3536C169.309 58.1859 173.537 42.975 159.176 36.1731C165.895 46.5716 156.923 54.2377 148.736 43.303C142.108 30.9005 162.898 23.8061 136.985 4.34277H136.984ZM118.474 8.58727C107.448 14.1466 115.957 18.9913 116.062 24.4648C123.648 17.7704 115.422 15.2649 118.474 8.58727ZM131.279 54.8551L101.474 71.9899C101.94 75.1519 103.018 77.9076 104.708 80.329L120.527 72.7528L106.997 83.0477C107.58 83.6289 108.206 84.1859 108.878 84.7241L121.725 77.3417C121.721 77.2148 121.714 77.0881 121.714 76.96C121.714 70.5604 126.958 65.3438 133.374 65.3438C135.126 65.3419 136.857 65.7367 138.435 66.4987C138.036 64.1923 137.184 61.8385 135.905 59.7449L119.581 66.6438L133.761 56.9349C133.015 56.1526 132.185 55.4494 131.278 54.8555L131.279 54.8551ZM141.401 64.763C141.678 65.992 141.848 67.2243 141.912 68.4273L141.949 69.1044C143.863 71.1749 145.033 73.9342 145.033 76.9598C145.033 78.263 144.812 79.5567 144.378 80.7855L160.084 84.9767C160.882 83.8888 161.56 82.7814 162.12 81.6454L151.261 77.4009L163.318 78.5776C163.467 78.0707 163.595 77.5592 163.7 77.0408L147.011 71.1571L164.06 73.817C164.086 72.8245 164.042 71.8104 163.92 70.7702L141.401 64.7635V64.763ZM133.374 68.5563C128.686 68.5563 124.927 72.3046 124.927 76.9598C124.927 81.6156 128.686 85.3635 133.374 85.3635C138.061 85.3635 141.82 81.6156 141.82 76.96C141.82 72.3047 138.061 68.5566 133.374 68.5566L133.374 68.5563ZM132.525 70.5817C140.052 70.5821 142.572 82.8917 132.525 82.8917C137.102 78.9177 137.65 74.8298 132.525 70.5823V70.5817ZM132.557 72.2745C128.84 75.3549 129.238 78.3228 132.557 81.205C125.271 81.205 127.099 72.2745 132.557 72.2745Z" fill="url(#paint0_linear_16_3)"/>
<defs>
<linearGradient id="paint0_linear_16_3" x1="134.983" y1="4.34277" x2="134.983" y2="85.3635" gradientUnits="userSpaceOnUse">
<stop offset="0.3" stop-color="#F8B200"/>
<stop offset="0.92" stop-color="#FF0000"/>
</linearGradient>
</defs>
</svg>
