<svg width="997" height="285" viewBox="0 0 997 285" fill="none" xmlns="http://www.w3.org/2000/svg">
<g clip-path="url(#clip0_5_516)">
<path d="M570.26 226.644H566.108V189.277C566.108 188.176 565.67 187.12 564.892 186.341C564.113 185.562 563.057 185.125 561.956 185.125C560.855 185.125 559.799 185.562 559.02 186.341C558.242 187.12 557.804 188.176 557.804 189.277V191.145C551.742 186.246 545.722 181.056 539.868 175.659C506.344 144.912 479.017 108.03 459.364 67.005L449.524 46.4949C449.205 45.7459 448.673 45.1073 447.994 44.6584C447.315 44.2095 446.518 43.9702 445.704 43.9702C444.89 43.9702 444.094 44.2095 443.415 44.6584C442.736 45.1073 442.204 45.7459 441.885 46.4949L432.045 67.005C419.131 93.8146 402.94 118.918 383.842 141.738L380.022 146.222C376.202 150.665 372.217 154.983 368.189 159.218C362.654 164.753 357.118 170.192 351.582 175.534C345.686 180.973 339.666 186.246 333.604 191.145V189.277C333.604 188.176 333.167 187.12 332.388 186.341C331.61 185.562 330.554 185.125 329.453 185.125C328.351 185.125 327.295 185.562 326.517 186.341C325.738 187.12 325.301 188.176 325.301 189.277V226.644H321.149C320.048 226.644 318.992 227.081 318.213 227.86C317.434 228.638 316.997 229.694 316.997 230.795C316.997 231.897 317.434 232.953 318.213 233.731C318.992 234.51 320.048 234.947 321.149 234.947H570.26C571.361 234.947 572.417 234.51 573.196 233.731C573.974 232.953 574.412 231.897 574.412 230.795C574.412 229.694 573.974 228.638 573.196 227.86C572.417 227.081 571.361 226.644 570.26 226.644ZM557.804 226.644H541.197V188.031C546.636 192.848 552.199 197.581 557.804 201.732V226.644ZM333.604 201.732C339.209 197.581 344.773 192.889 350.212 188.073V226.644H333.604V201.732ZM490.046 226.644H398.041L383.717 190.813C383.46 190.117 383.393 189.365 383.524 188.635C383.656 187.905 383.98 187.223 384.465 186.661L441.552 121.311L442.258 120.522C442.471 120.24 442.707 119.976 442.964 119.733H443.255H443.545L444.127 119.526H444.542C445.021 119.423 445.516 119.423 445.995 119.526C446.255 119.571 446.507 119.655 446.742 119.775C446.962 119.86 447.172 119.972 447.365 120.107C447.5 120.153 447.616 120.24 447.697 120.356L448.195 120.813L448.528 121.228L449.192 121.934L506.944 186.537C507.428 187.099 507.753 187.78 507.884 188.511C508.016 189.241 507.949 189.993 507.691 190.689L493.368 226.644H490.046Z" fill="black"/>
<path d="M475.919 219.5L487.627 190.188L446.565 143.231L475.919 219.5Z" fill="black"/>
<path d="M392.715 219.5L422.069 143.231L381.007 190.188L392.715 219.5Z" fill="black"/>
</g>
<path d="M9.32324 236.97V92.3156H111.034V123.959H48.5947V148.821H104.818V180.465H48.5947V236.97H9.32324Z" fill="black"/>
<path d="M164.749 111V236.97H125.478V111L145.5 92.3156L164.749 111Z" fill="black"/>
<path d="M183.361 236.97V92.3156H245.8C256.536 92.3156 265.93 94.2697 273.982 98.1781C282.034 102.086 288.297 107.713 292.77 115.059C297.243 122.405 299.48 131.21 299.48 141.476C299.48 151.835 297.173 160.57 292.558 167.68C287.991 174.79 281.563 180.158 273.276 183.784C265.035 187.41 255.406 189.223 244.387 189.223H207.093V158.71H236.476C241.091 158.71 245.023 158.145 248.272 157.015C251.568 155.837 254.087 153.977 255.829 151.435C257.619 148.892 258.514 145.572 258.514 141.476C258.514 137.332 257.619 133.965 255.829 131.375C254.087 128.738 251.568 126.808 248.272 125.583C245.023 124.312 241.091 123.676 236.476 123.676H222.632V236.97H183.361ZM268.12 170.576L304.283 236.97H261.621L226.305 170.576H268.12Z" fill="black"/>
<path d="M671.57 137.52C671.194 132.811 669.428 129.138 666.273 126.502C663.165 123.865 658.433 122.546 652.076 122.546C648.026 122.546 644.707 123.041 642.117 124.029C639.574 124.971 637.691 126.266 636.466 127.914C635.242 129.562 634.606 131.446 634.559 133.565C634.465 135.307 634.771 136.884 635.477 138.297C636.231 139.663 637.408 140.911 639.009 142.041C640.61 143.124 642.658 144.113 645.154 145.007C647.65 145.902 650.616 146.702 654.054 147.409L665.92 149.951C673.925 151.647 680.776 153.883 686.474 156.661C692.171 159.44 696.833 162.712 700.459 166.479C704.085 170.199 706.745 174.39 708.44 179.052C710.183 183.714 711.077 188.799 711.124 194.308C711.077 203.82 708.699 211.872 703.991 218.465C699.282 225.057 692.548 230.072 683.79 233.509C675.078 236.947 664.601 238.665 652.359 238.665C639.786 238.665 628.814 236.805 619.444 233.085C610.12 229.366 602.869 223.644 597.689 215.922C592.557 208.152 589.967 198.217 589.92 186.115H627.213C627.449 190.541 628.555 194.261 630.533 197.275C632.511 200.289 635.289 202.572 638.868 204.126C642.494 205.68 646.802 206.457 651.793 206.457C655.984 206.457 659.492 205.939 662.318 204.903C665.143 203.867 667.285 202.431 668.745 200.595C670.205 198.758 670.958 196.663 671.005 194.308C670.958 192.095 670.228 190.165 668.816 188.517C667.45 186.821 665.19 185.315 662.035 183.996C658.88 182.631 654.619 181.359 649.251 180.182L634.842 177.074C622.034 174.296 611.933 169.658 604.541 163.16C597.195 156.614 593.545 147.691 593.593 136.39C593.545 127.208 595.994 119.179 600.938 112.305C605.93 105.383 612.828 99.991 621.633 96.1297C630.486 92.2685 640.634 90.3379 652.076 90.3379C663.754 90.3379 673.854 92.292 682.377 96.2004C690.9 100.109 697.469 105.618 702.084 112.728C706.745 119.792 709.1 128.055 709.147 137.52H671.57Z" fill="black"/>
<path d="M722.108 123.959V92.3156H847.833V123.959H804.324V236.97H765.617V123.959H722.108Z" fill="black"/>
<path d="M948.219 92.3156H987.49V184.985C987.49 196.004 984.854 205.539 979.58 213.591C974.353 221.596 967.054 227.788 957.684 232.167C948.313 236.499 937.436 238.665 925.052 238.665C912.573 238.665 901.649 236.499 892.278 232.167C882.908 227.788 875.609 221.596 870.382 213.591C865.203 205.539 862.613 196.004 862.613 184.985V92.3156H901.884V181.595C901.884 186.068 902.873 190.071 904.851 193.602C906.829 197.087 909.56 199.818 913.044 201.795C916.576 203.773 920.578 204.762 925.052 204.762C929.572 204.762 933.575 203.773 937.059 201.795C940.544 199.818 943.275 197.087 945.252 193.602C947.23 190.071 948.219 186.068 948.219 181.595V92.3156Z" fill="black"/>
<path d="M145.984 4.34277C154.313 16.6371 142.813 29.3696 135.039 14.4817C139.733 39.3273 123.826 43.0833 122.187 27.3342C109.54 38.52 111.981 52.6385 118.673 63.5704L126.555 59.0408C124.491 55.8912 123.461 51.7331 123.923 47.6553C128.34 54.4349 142.295 49.3899 140.622 37.3496C142.461 42.8644 147.122 42.3307 151.933 33.8249C145.389 51.4858 155.685 62.9414 162.577 57.6547C162.83 59.7128 162.07 62.0661 160.756 64.1992L168.831 66.3536C178.309 58.1859 182.537 42.975 168.176 36.1731C174.895 46.5716 165.923 54.2377 157.736 43.303C151.108 30.9005 171.898 23.8061 145.985 4.34277H145.984ZM127.474 8.58727C116.448 14.1466 124.957 18.9913 125.062 24.4648C132.648 17.7704 124.422 15.2649 127.474 8.58727ZM140.279 54.8551L110.474 71.9899C110.94 75.1519 112.018 77.9076 113.708 80.329L129.527 72.7528L115.997 83.0477C116.58 83.6289 117.206 84.1859 117.878 84.7241L130.725 77.3417C130.721 77.2148 130.714 77.0881 130.714 76.96C130.714 70.5604 135.958 65.3438 142.374 65.3438C144.126 65.3419 145.857 65.7367 147.435 66.4987C147.036 64.1923 146.184 61.8385 144.905 59.7449L128.581 66.6438L142.761 56.9349C142.015 56.1526 141.185 55.4494 140.278 54.8555L140.279 54.8551ZM150.401 64.763C150.678 65.992 150.848 67.2243 150.912 68.4273L150.949 69.1044C152.863 71.1749 154.033 73.9342 154.033 76.9598C154.033 78.263 153.812 79.5567 153.378 80.7855L169.084 84.9767C169.882 83.8888 170.56 82.7814 171.12 81.6454L160.261 77.4009L172.318 78.5776C172.467 78.0707 172.595 77.5592 172.7 77.0408L156.011 71.1571L173.06 73.817C173.086 72.8245 173.042 71.8104 172.92 70.7702L150.401 64.7635V64.763ZM142.374 68.5563C137.686 68.5563 133.927 72.3046 133.927 76.9598C133.927 81.6156 137.686 85.3635 142.374 85.3635C147.061 85.3635 150.82 81.6156 150.82 76.96C150.82 72.3047 147.061 68.5566 142.374 68.5566L142.374 68.5563ZM141.525 70.5817C149.052 70.5821 151.572 82.8917 141.525 82.8917C146.102 78.9177 146.65 74.8298 141.525 70.5823V70.5817ZM141.557 72.2745C137.84 75.3549 138.238 78.3228 141.557 81.205C134.271 81.205 136.099 72.2745 141.557 72.2745Z" fill="url(#paint0_linear_5_516)"/>
<defs>
<linearGradient id="paint0_linear_5_516" x1="143.983" y1="4.34277" x2="143.983" y2="85.3635" gradientUnits="userSpaceOnUse">
<stop offset="0.3" stop-color="#F8B200"/>
<stop offset="0.92" stop-color="#FF0000"/>
</linearGradient>
<clipPath id="clip0_5_516">
<rect width="265.718" height="265.718" fill="white" transform="translate(301.459 6.67676)"/>
</clipPath>
</defs>
</svg>
